<?xml version="1.0" encoding="UTF-8" standalone="no"?>
<svg
   xmlns:a="http://ns.adobe.com/AdobeSVGViewerExtensions/3.0/"
   xmlns:dc="http://purl.org/dc/elements/1.1/"
   xmlns:cc="http://creativecommons.org/ns#"
   xmlns:rdf="http://www.w3.org/1999/02/22-rdf-syntax-ns#"
   xmlns:svg="http://www.w3.org/2000/svg"
   xmlns="http://www.w3.org/2000/svg"
   xmlns:xlink="http://www.w3.org/1999/xlink"
   xmlns:sodipodi="http://sodipodi.sourceforge.net/DTD/sodipodi-0.dtd"
   xmlns:inkscape="http://www.inkscape.org/namespaces/inkscape"
   width="198.12mm"
   height="128.5mm"
   viewBox="0 0 198.12 128.5"
   version="1.1"
   id="svg8"
   inkscape:version="1.0beta2 (2b71d25, 2019-12-03)"
   sodipodi:docname="ModularForecast.svg">
  <defs
     id="defs2">
    <linearGradient
       gradientTransform="matrix(1,0,0,-1,0,320)"
       gradientUnits="userSpaceOnUse"
       xlink:href="#SVGID_2_"
       id="linearGradient3000"
       y2="287.67639"
       x2="273.71011"
       y1="263.3428"
       x1="238.71001" />
    <linearGradient
       gradientTransform="matrix(1,0,0,-1,0,320)"
       gradientUnits="userSpaceOnUse"
       id="SVGID_2_"
       y2="287.67639"
       x2="273.71011"
       y1="263.3428"
       x1="238.71001">
      <stop
         offset="0"
         style="stop-color:#545454;stop-opacity:1"
         id="stop2643" />
      <stop
         offset="0.45100001"
         style="stop-color:#ffffff;stop-opacity:1"
         id="stop2645" />
      <stop
         offset="0.54900002"
         style="stop-color:#ffffff;stop-opacity:1"
         id="stop2647" />
      <stop
         offset="1"
         style="stop-color:#545454;stop-opacity:1"
         id="stop2649" />
      <a:midPointStop
         style="stop-color:#545454"
         offset="0" />
      <a:midPointStop
         style="stop-color:#545454"
         offset="0.5" />
      <a:midPointStop
         style="stop-color:#FFFFFF"
         offset="0.451" />
      <a:midPointStop
         style="stop-color:#FFFFFF"
         offset="0.5" />
      <a:midPointStop
         style="stop-color:#FFFFFF"
         offset="0.549" />
      <a:midPointStop
         style="stop-color:#FFFFFF"
         offset="0.5" />
      <a:midPointStop
         style="stop-color:#545454"
         offset="1" />
    </linearGradient>
    <linearGradient
       gradientTransform="matrix(0.8805,-0.4741,-0.4741,-0.8805,162.2281,410.4667)"
       gradientUnits="userSpaceOnUse"
       xlink:href="#SVGID_3_"
       id="linearGradient3002"
       y2="277.52441"
       x2="259.75391"
       y1="277.52441"
       x1="253.00391" />
    <linearGradient
       gradientTransform="matrix(0.8805,-0.4741,-0.4741,-0.8805,162.2281,410.4667)"
       gradientUnits="userSpaceOnUse"
       id="SVGID_3_"
       y2="277.52441"
       x2="259.75391"
       y1="277.52441"
       x1="253.00391">
      <stop
         offset="0"
         style="stop-color:#95999d;stop-opacity:1"
         id="stop2656" />
      <stop
         offset="0.49509999"
         style="stop-color:#cccccc;stop-opacity:1"
         id="stop2658" />
      <stop
         offset="1"
         style="stop-color:#95999d;stop-opacity:1"
         id="stop2660" />
      <a:midPointStop
         style="stop-color:#95999D"
         offset="0" />
      <a:midPointStop
         style="stop-color:#95999D"
         offset="0.5" />
      <a:midPointStop
         style="stop-color:#CCCCCC"
         offset="0.4951" />
      <a:midPointStop
         style="stop-color:#CCCCCC"
         offset="0.5" />
      <a:midPointStop
         style="stop-color:#95999D"
         offset="1" />
    </linearGradient>
    <linearGradient
       gradientTransform="matrix(1,0,0,-1,0,320)"
       gradientUnits="userSpaceOnUse"
       xlink:href="#SVGID_4_"
       id="linearGradient3004"
       y2="236.0094"
       x2="274.0441"
       y1="211.6758"
       x1="239.0439" />
    <linearGradient
       gradientTransform="matrix(1,0,0,-1,0,320)"
       gradientUnits="userSpaceOnUse"
       id="SVGID_4_"
       y2="236.0094"
       x2="274.0441"
       y1="211.6758"
       x1="239.0439">
      <stop
         offset="0"
         style="stop-color:#545454;stop-opacity:1"
         id="stop2666" />
      <stop
         offset="0.45100001"
         style="stop-color:#ffffff;stop-opacity:1"
         id="stop2668" />
      <stop
         offset="0.54900002"
         style="stop-color:#ffffff;stop-opacity:1"
         id="stop2670" />
      <stop
         offset="1"
         style="stop-color:#545454;stop-opacity:1"
         id="stop2672" />
      <a:midPointStop
         style="stop-color:#545454"
         offset="0" />
      <a:midPointStop
         style="stop-color:#545454"
         offset="0.5" />
      <a:midPointStop
         style="stop-color:#FFFFFF"
         offset="0.451" />
      <a:midPointStop
         style="stop-color:#FFFFFF"
         offset="0.5" />
      <a:midPointStop
         style="stop-color:#FFFFFF"
         offset="0.549" />
      <a:midPointStop
         style="stop-color:#FFFFFF"
         offset="0.5" />
      <a:midPointStop
         style="stop-color:#545454"
         offset="1" />
    </linearGradient>
    <linearGradient
       gradientTransform="matrix(0.9668,-0.2554,-0.2554,-0.9668,66.0736,379.1345)"
       gradientUnits="userSpaceOnUse"
       xlink:href="#SVGID_5_"
       id="linearGradient3006"
       y2="224.86909"
       x2="259.96179"
       y1="224.86909"
       x1="253.21091" />
    <linearGradient
       gradientTransform="matrix(0.9668,-0.2554,-0.2554,-0.9668,66.0736,379.1345)"
       gradientUnits="userSpaceOnUse"
       id="SVGID_5_"
       y2="224.86909"
       x2="259.96179"
       y1="224.86909"
       x1="253.21091">
      <stop
         offset="0"
         style="stop-color:#95999d;stop-opacity:1"
         id="stop2679" />
      <stop
         offset="0.49509999"
         style="stop-color:#cccccc;stop-opacity:1"
         id="stop2681" />
      <stop
         offset="1"
         style="stop-color:#95999d;stop-opacity:1"
         id="stop2683" />
      <a:midPointStop
         style="stop-color:#95999D"
         offset="0" />
      <a:midPointStop
         style="stop-color:#95999D"
         offset="0.5" />
      <a:midPointStop
         style="stop-color:#CCCCCC"
         offset="0.4951" />
      <a:midPointStop
         style="stop-color:#CCCCCC"
         offset="0.5" />
      <a:midPointStop
         style="stop-color:#95999D"
         offset="1" />
    </linearGradient>
    <linearGradient
       gradientTransform="matrix(1,0,0,-1,0,320)"
       gradientUnits="userSpaceOnUse"
       xlink:href="#SVGID_1_"
       id="linearGradient2998"
       y2="216"
       x2="222"
       y1="216"
       x1="26" />
    <linearGradient
       gradientTransform="matrix(1,0,0,-1,0,320)"
       gradientUnits="userSpaceOnUse"
       id="SVGID_1_"
       y2="216"
       x2="222"
       y1="216"
       x1="26">
      <stop
         offset="0"
         style="stop-color:#e7edf3;stop-opacity:1"
         id="stop2632" />
      <stop
         offset="1"
         style="stop-color:#95999d;stop-opacity:1"
         id="stop2634" />
      <a:midPointStop
         style="stop-color:#E7EDF3"
         offset="0" />
      <a:midPointStop
         style="stop-color:#E7EDF3"
         offset="0.5" />
      <a:midPointStop
         style="stop-color:#95999D"
         offset="1" />
    </linearGradient>
    <linearGradient
       gradientTransform="matrix(1,0,0,-1,0,320)"
       gradientUnits="userSpaceOnUse"
       xlink:href="#SVGID_6_"
       id="linearGradient3008"
       y2="286.1665"
       x2="123.8247"
       y1="145.83299"
       x1="123.8247" />
    <linearGradient
       gradientTransform="matrix(1,0,0,-1,0,320)"
       gradientUnits="userSpaceOnUse"
       id="SVGID_6_"
       y2="286.1665"
       x2="123.8247"
       y1="145.83299"
       x1="123.8247">
      <stop
         offset="0"
         style="stop-color:#e7edf3;stop-opacity:1"
         id="stop2694" />
      <stop
         offset="1"
         style="stop-color:#ffffff;stop-opacity:1"
         id="stop2696" />
      <a:midPointStop
         style="stop-color:#E7EDF3"
         offset="0" />
      <a:midPointStop
         style="stop-color:#E7EDF3"
         offset="0.5" />
      <a:midPointStop
         style="stop-color:#FFFFFF"
         offset="1" />
    </linearGradient>
  </defs>
  <sodipodi:namedview
     id="base"
     pagecolor="#ffffff"
     bordercolor="#666666"
     borderopacity="1.0"
     inkscape:pageopacity="0.0"
     inkscape:pageshadow="2"
     inkscape:zoom="1.0203168"
     inkscape:cx="213.73822"
     inkscape:cy="251.2784"
     inkscape:document-units="mm"
     inkscape:current-layer="layer1"
     inkscape:document-rotation="0"
     showgrid="false"
     inkscape:window-width="1140"
     inkscape:window-height="711"
     inkscape:window-x="364"
     inkscape:window-y="27"
     inkscape:window-maximized="0" />
  <metadata
     id="metadata5">
    <rdf:RDF>
      <cc:Work
         rdf:about="">
        <dc:format>image/svg+xml</dc:format>
        <dc:type
           rdf:resource="http://purl.org/dc/dcmitype/StillImage" />
        <dc:title />
      </cc:Work>
    </rdf:RDF>
  </metadata>
  <g
     inkscape:label="Layer 1"
     inkscape:groupmode="layer"
     id="layer1"
     style="display:inline">
    <path
       inkscape:connector-curvature="0"
       id="path33453"
       d="M 198.12001,128.5 H 0 V 0 h 198.12001 z m 0,0"
       style="display:inline;fill:#56c1e4;fill-opacity:0.238866;fill-rule:nonzero;stroke:none;stroke-width:0.470437" />
    <g
       id="g1634"
       transform="matrix(-1.1803508,0,0,-1.1311861,340.6513,137.32185)"
       style="display:inline">
      <g
         id="Layer_2"
         transform="matrix(0.59520712,0,0,0.59945953,115.39647,3.3028064)">
        <path
           style="fill:#c0c3c4"
           id="path2616"
           d="m 291,184 c 0,7.18 -5.82,13 -13,13 H 22 C 14.82,197 9,191.18 9,184 V 20.5 c 0,-7.18 5.82,-13 13,-13 h 256 c 7.18,0 13,5.82 13,13 z"
           inkscape:connector-curvature="0" />
      </g>
      <g
         id="Layer_3"
         transform="matrix(0.59520712,0,0,0.59945953,115.39647,3.3028064)">
        <path
           style="fill:#42474a"
           id="path2619"
           d="m 284,181.5 c 0,5.522 -4.478,10 -10,10 H 24 c -5.523,0 -10,-4.478 -10,-10 v -158 c 0,-5.523 4.477,-10 10,-10 h 250 c 5.522,0 10,4.477 10,10 z"
           inkscape:connector-curvature="0" />
      </g>
      <g
         id="Layer_3_copy"
         transform="matrix(0.59520712,0,0,0.59945953,115.39647,3.3028064)">
        <path
           style="fill:#bfc3c6"
           id="path2622"
           d="m 281,179.744 c 0,5.399 -4.378,9.778 -9.777,9.778 H 26.778 c -5.4,0 -9.778,-4.379 -9.778,-9.778 V 25.255 c 0,-5.4 4.377,-9.778 9.778,-9.778 h 244.445 c 5.399,0 9.777,4.378 9.777,9.778 z"
           inkscape:connector-curvature="0" />
      </g>
      <g
         id="Layer_3_copy_2"
         transform="matrix(0.59520712,0,0,0.59945953,115.39647,3.3028064)">
        <path
           style="fill:#42474a"
           id="path2625"
           d="M 282.414,187.522 H 29.587 c -5.276,0 -9.553,-4.277 -9.553,-9.555 V 27.031 c 0,-5.276 4.277,-9.553 9.553,-9.553 h 252.827 z"
           inkscape:connector-curvature="0" />
      </g>
      <g
         id="Layer_3_copy_3"
         transform="matrix(0.59520712,0,0,0.59945953,115.39647,3.3028064)">
        <path
           style="fill:#c0c3c4"
           id="path2628"
           d="m 229.691,176.638 c 0,5.184 -4.202,9.386 -9.385,9.386 H 31.694 c -5.184,0 -9.385,-4.202 -9.385,-9.386 V 28.362 c 0,-5.183 4.201,-9.385 9.385,-9.385 h 188.614 c 5.183,0 9.385,4.202 9.385,9.385 z"
           inkscape:connector-curvature="0" />
      </g>
      <g
         id="Layer_7"
         transform="matrix(0.59520712,0,0,0.59945953,115.39647,3.3028064)">
        <linearGradient
           gradientTransform="matrix(1,0,0,-1,0,320)"
           gradientUnits="userSpaceOnUse"
           id="linearGradient1309"
           y2="216"
           x2="222"
           y1="216"
           x1="26">
          <stop
             offset="0"
             style="stop-color:#e7edf3;stop-opacity:1"
             id="stop1305" />
          <stop
             offset="1"
             style="stop-color:#95999d;stop-opacity:1"
             id="stop1307" />
          <a:midPointStop
             style="stop-color:#E7EDF3"
             offset="0" />
          <a:midPointStop
             style="stop-color:#E7EDF3"
             offset="0.5" />
          <a:midPointStop
             style="stop-color:#95999D"
             offset="1" />
        </linearGradient>
        <path
           style="fill:url(#linearGradient2998)"
           id="path2636"
           d="m 222,177.5 c 0,3.313 -2.687,6 -6,6 H 32 c -3.313,0 -6,-2.687 -6,-6 v -147 c 0,-3.313 2.687,-6 6,-6 h 184 c 3.313,0 6,2.687 6,6 z"
           inkscape:connector-curvature="0" />
      </g>
      <g
         id="Layer_8"
         transform="matrix(0.59520712,0,0,0.59945953,115.39647,3.3028064)">
        <path
           style="fill:#343535"
           id="path2639"
           d="m 219.167,103.833 c 0,33 -2.166,57.034 -2.166,57.034 -1.5,11.25 -7.162,15.438 -26.501,17 -31,2.5 -69.5,1.75 -69.5,1.75 0,0 -34,0.834 -65,-1.666 -19.338,-1.562 -25,-5.75 -26.5,-17 0,0 -1.167,-23.667 -1,-56.784 C 28.667,71.05 31,47 31,47 32.5,35.75 38.162,31.56 57.5,30 c 31,-2.5 65,-1.667 65,-1.667 0,0 38.5,-0.75 69.5,1.75 19.339,1.56 25.001,5.75 26.501,17 0,0 0.666,23.75 0.666,56.75 z"
           inkscape:connector-curvature="0" />
      </g>
      <g
         id="Layer_8_copy"
         transform="matrix(0.59520712,0,0,0.59945953,115.39647,3.3028064)">
        <linearGradient
           gradientTransform="matrix(1,0,0,-1,0,320)"
           gradientUnits="userSpaceOnUse"
           id="linearGradient1366"
           y2="286.1665"
           x2="123.8247"
           y1="145.83299"
           x1="123.8247">
          <stop
             offset="0"
             style="stop-color:#e7edf3;stop-opacity:1"
             id="stop1362" />
          <stop
             offset="1"
             style="stop-color:#ffffff;stop-opacity:1"
             id="stop1364" />
          <a:midPointStop
             style="stop-color:#E7EDF3"
             offset="0" />
          <a:midPointStop
             style="stop-color:#E7EDF3"
             offset="0.5" />
          <a:midPointStop
             style="stop-color:#FFFFFF"
             offset="1" />
        </linearGradient>
        <path
           style="fill:url(#linearGradient3008)"
           id="path2698"
           d="m 216.5,103.837 c 0,32.077 -2.105,55.438 -2.105,55.438 -1.457,10.935 -6.962,15.007 -25.76,16.524 -30.133,2.432 -67.556,1.701 -67.556,1.701 0,0 -33.049,0.811 -63.182,-1.619 -18.797,-1.517 -24.301,-5.589 -25.759,-16.525 0,0 -1.134,-23.004 -0.972,-55.195 0.162,-32.191 2.43,-55.568 2.43,-55.568 1.458,-10.935 6.962,-15.008 25.759,-16.524 30.133,-2.43 63.182,-1.62 63.182,-1.62 0,0 37.423,-0.729 67.556,1.701 18.798,1.516 24.302,5.589 25.76,16.524 0,10e-4 0.647,23.087 0.647,55.163 z"
           inkscape:connector-curvature="0" />
      </g>
    </g>
    <g
       style="font-size:7.05556px;line-height:1.25;font-family:JazzText;-inkscape-font-specification:JazzText;fill:#ffffff;fill-opacity:1;stroke-width:0.264583"
       id="text1315"
       aria-label="Sunny"
       transform="translate(0,-2.1166667)">
      <path
         id="path97"
         style="fill:#ffffff;fill-opacity:1;stroke-width:0.264583"
         d="m 19.857061,18.060923 q -0.04233,1.016001 -0.373945,1.418168 -0.373944,0.458611 -1.340556,0.458611 h -1.220612 q -0.0071,-0.04233 0.07056,-0.733778 l 0.07055,-0.719667 q 0.183445,-0.169334 0.705556,-0.268111 0.08467,0 0.1905,0.1905 0.112889,0.1905 0.359834,0.1905 0.606778,0 0.670278,-0.169334 0.04233,-0.282222 -0.691445,-0.451555 -0.522111,-0.119945 -0.924278,-0.119945 -0.1905,0 -0.388056,0.02117 -0.458611,-0.09172 -0.592667,-0.261056 -0.211667,-0.268111 -0.211667,-1.058334 0,-0.712612 0.416278,-1.298223 0.381,-0.529167 1.058334,-0.87489 0.465667,-0.239889 0.663223,-0.239889 0.127,0 0.261056,0.232834 0.141111,0.225778 0.141111,0.373945 0,0.112888 -0.09172,0.663222 -0.458611,0 -0.945445,0.246945 -0.578555,0.289278 -0.620889,0.6985 -0.02822,0.119945 0.331611,0.119945 0.09878,0 0.296334,-0.0071 0.197556,-0.0071 0.296334,-0.0071 0.924278,0 1.368778,0.3175 0.543278,0.381 0.500945,1.277056 z"
         inkscape:connector-curvature="0" />
      <path
         id="path99"
         style="fill:#ffffff;fill-opacity:1;stroke-width:0.264583"
         d="m 22.938577,18.025645 q 0,1.996724 -0.874889,1.940279 -0.783168,-0.04939 -1.164168,-0.1905 -0.381,-0.684389 -0.522111,-1.524001 -0.09878,-0.599722 -0.09878,-1.538112 0,-0.183444 0.02822,-0.627945 0.02117,-0.402167 0.01411,-0.635 h 0.62089 q 0,0.211667 -0.03528,0.635 -0.02822,0.416278 -0.02822,0.627945 0,0.896056 0.08467,1.227668 0.183445,0.712611 0.804334,0.747889 0.409223,0.02117 0.529167,-0.204611 0.09172,-0.169334 0.09172,-0.691445 0,-1.093612 -0.705556,-1.241779 l 0.112889,-1.135945 q 0.07056,-0.0071 0.275167,-0.0071 0.275167,0 0.536223,0.606778 0.331611,0.769056 0.331611,2.010834 z"
         inkscape:connector-curvature="0" />
      <path
         id="path101"
         style="fill:#ffffff;fill-opacity:1;stroke-width:0.264583"
         d="m 26.380147,19.260368 q 0,0.381001 -0.07056,0.68439 h -0.416278 q -0.1905,-0.275167 -0.832556,-0.987779 -0.719667,-0.797278 -1.107723,-1.128889 0.0071,0.261055 0.05645,0.811389 0.05644,0.543278 0.05644,0.825501 0,0.105833 -0.02117,0.176389 -0.04939,0.112889 -0.239889,0.112889 -0.141111,0 -0.268111,-0.07056 -0.204611,-0.656167 -0.204611,-2.695224 0,-0.564445 0.09172,-1.347612 0.119945,-0.04233 0.225778,-0.04233 0.162278,0 0.296334,0.09172 0.04233,0.07761 0.04939,0.225778 0.0071,0.218722 0.01411,0.246945 0.536222,0.557389 1.312334,1.446389 -0.07761,-0.8255 -0.07761,-1.192389 0,-0.127 0.04233,-0.536223 0.05645,-0.522111 0.127,-0.712611 0.04939,0 0.141111,-0.01411 0.09878,-0.01411 0.148167,-0.01411 0.162278,0 0.246945,0.155223 0,0.162278 -0.02822,0.493889 -0.02117,0.331611 -0.02117,0.493889 0,1.171223 0.3175,2.173113 0.162278,0.515055 0.162278,0.804333 z"
         inkscape:connector-curvature="0" />
      <path
         id="path103"
         style="fill:#ffffff;fill-opacity:1;stroke-width:0.264583"
         d="m 29.825245,19.260368 q 0,0.381001 -0.07056,0.68439 h -0.416278 q -0.1905,-0.275167 -0.832556,-0.987779 -0.719667,-0.797278 -1.107723,-1.128889 0.0071,0.261055 0.05645,0.811389 0.05644,0.543278 0.05644,0.825501 0,0.105833 -0.02117,0.176389 -0.04939,0.112889 -0.239889,0.112889 -0.141111,0 -0.268111,-0.07056 -0.204611,-0.656167 -0.204611,-2.695224 0,-0.564445 0.09172,-1.347612 0.119945,-0.04233 0.225778,-0.04233 0.162278,0 0.296334,0.09172 0.04233,0.07761 0.04939,0.225778 0.0071,0.218722 0.01411,0.246945 0.536222,0.557389 1.312334,1.446389 -0.07761,-0.8255 -0.07761,-1.192389 0,-0.127 0.04233,-0.536223 0.05644,-0.522111 0.127,-0.712611 0.04939,0 0.141111,-0.01411 0.09878,-0.01411 0.148167,-0.01411 0.162278,0 0.246945,0.155223 0,0.162278 -0.02822,0.493889 -0.02117,0.331611 -0.02117,0.493889 0,1.171223 0.3175,2.173113 0.162278,0.515055 0.162278,0.804333 z"
         inkscape:connector-curvature="0" />
      <path
         id="path105"
         style="fill:#ffffff;fill-opacity:1;stroke-width:0.264583"
         d="m 32.974008,15.415088 q 0.04233,0.232834 0.04233,0.465667 0,1.107723 -0.903112,1.933224 l 0.04233,1.0795 q 0,0.508001 -0.0635,1.00189 H 31.47823 q 0,-0.931334 -0.07761,-1.693335 -0.211666,0.04939 -0.388055,0.04939 -0.896057,0 -0.896057,-1.347612 0,-0.3175 0.05645,-0.867834 0.155222,-0.239889 0.500945,-0.239889 0.141111,0 0.275166,0.04939 -0.127,0.550334 -0.127,0.790223 0,0.373945 0.246945,0.373945 0.02822,0 0.09172,-0.01411 0.451556,-0.09878 0.832556,-0.55739 0.388056,-0.465667 0.388056,-0.931334 0,-0.09878 -0.02117,-0.183444 0.183444,-0.09172 0.352778,-0.09172 0.261055,0 0.261055,0.183444 z"
         inkscape:connector-curvature="0" />
    </g>
    <g
       style="font-size:7.05556px;line-height:1.25;font-family:JazzText;-inkscape-font-specification:JazzText;fill:#ffffff;fill-opacity:1;stroke-width:0.264583"
       id="text1315-3"
       aria-label="Rainbow"
       transform="translate(0,-1.5875)">
      <path
         id="path108"
         style="fill:#ffffff;fill-opacity:1;stroke-width:0.264583"
         d="m 19.405391,29.4648 q -0.232833,-0.02822 -0.846667,-0.268111 -0.656167,-0.261056 -0.980723,-0.331612 0.02117,0.09172 0.02117,0.169334 0,0.261056 -0.211667,0.324556 -0.169333,0.0071 -0.338667,0.02117 -0.3175,-1.305278 -0.331611,-2.765779 -0.536223,0 -0.536223,-1.016001 0,-0.776112 0.599723,-1.411112 0.564445,-0.599723 1.150056,-0.599723 0.74789,0 1.00189,0.536223 0.155222,0.324556 0.155222,1.023056 0,0.670278 -0.366889,1.432279 -0.303389,0.627945 -0.691445,1.051278 0,0.148167 0.677334,0.366889 0.684389,0.211667 0.6985,0.261056 z m -0.945445,-4.318003 q 0,-0.141111 -0.155222,-0.218722 -0.148167,-0.07761 -0.303389,-0.07761 -0.395111,0 -0.649112,0.381 -0.148166,0.296333 -0.303389,0.592667 0.204612,0.162278 0.282223,0.479778 0.03528,0.134056 0.0635,0.493889 0.02117,0.239889 0.08467,0.261056 l 0.635001,-1.00189 q 0.345722,-0.557389 0.345722,-0.910167 z"
         inkscape:connector-curvature="0" />
      <path
         id="path110"
         style="fill:#ffffff;fill-opacity:1;stroke-width:0.264583"
         d="m 22.124207,28.674577 0.0635,0.472723 q 0,0.176389 -0.310444,0.176389 -0.282223,0 -0.366889,-0.289278 l -0.112889,-0.677334 q -0.705556,0.268111 -0.790223,0.366889 0,0.529167 -0.02117,0.670278 H 20.08515 q -0.105833,-0.543278 -0.105833,-0.889 0,-0.642056 0.254,-1.883835 0.331612,-1.615723 0.776112,-1.89089 0.310445,0.02117 0.500945,0.684389 0.02822,0.07056 0.268111,1.241779 0.218722,1.051278 0.345722,2.01789 z m -1.030111,-1.460501 q 0,-0.211667 -0.08467,-0.635 l -0.105834,-0.0071 q -0.112888,0.352778 -0.169333,0.81139 0.359834,-0.08467 0.359834,-0.169334 z"
         inkscape:connector-curvature="0" />
      <path
         id="path112"
         style="fill:#ffffff;fill-opacity:1;stroke-width:0.264583"
         d="m 23.629357,28.491133 q 0.02117,0.183444 0.02117,0.331611 0,0.388056 -0.141111,0.437445 -0.09878,0.09172 -0.218722,0.09172 -0.127,0 -0.261056,-0.119945 -0.02822,-0.522111 -0.148167,-1.488723 -0.134055,-1.023056 -0.162278,-1.495778 -0.01411,-0.218723 -0.01411,-0.508001 0,-0.458611 0.04939,-0.754945 0.148167,-0.08467 0.296334,-0.08467 0.155222,0 0.268111,0.09878 -0.02117,0.81139 0.310445,3.492503 z"
         inkscape:connector-curvature="0" />
      <path
         id="path114"
         style="fill:#ffffff;fill-opacity:1;stroke-width:0.264583"
         d="m 27.237394,28.738077 q 0,0.381001 -0.07056,0.68439 H 26.75056 q -0.1905,-0.275167 -0.832556,-0.987779 -0.719667,-0.797278 -1.107723,-1.128889 0.0071,0.261055 0.05645,0.811389 0.05644,0.543278 0.05644,0.825501 0,0.105833 -0.02117,0.176389 -0.04939,0.112888 -0.239889,0.112888 -0.141111,0 -0.268111,-0.07055 -0.204611,-0.656167 -0.204611,-2.695224 0,-0.564445 0.09172,-1.347612 0.119945,-0.04233 0.225778,-0.04233 0.162278,0 0.296334,0.09172 0.04233,0.07761 0.04939,0.225778 0.0071,0.218722 0.01411,0.246944 0.536222,0.55739 1.312334,1.44639 -0.07761,-0.8255 -0.07761,-1.192389 0,-0.127001 0.04233,-0.536223 0.05644,-0.522111 0.127,-0.712612 0.04939,0 0.141111,-0.01411 0.09878,-0.01411 0.148167,-0.01411 0.162278,0 0.246945,0.155222 0,0.162278 -0.02822,0.49389 -0.02117,0.331611 -0.02117,0.493889 0,1.171223 0.3175,2.173112 0.162278,0.515056 0.162278,0.804334 z"
         inkscape:connector-curvature="0" />
      <path
         id="path116"
         style="fill:#ffffff;fill-opacity:1;stroke-width:0.264583"
         d="m 30.132158,27.503354 q 0,0.832556 -0.388056,1.354668 -0.430389,0.585611 -1.234723,0.585611 -0.402167,0 -0.55739,-0.162278 -0.155222,-0.169333 -0.155222,-0.578556 0,-0.232833 0.303389,-0.613833 0,0.141111 -0.02117,-0.183445 -0.02117,-0.303389 -0.02822,-0.458611 -0.0071,-0.232834 0,-0.599723 -0.155222,0.04233 -0.232833,0.04233 -0.282223,0 -0.254,-0.564445 0.02117,-0.465667 0.592667,-1.058334 0.578556,-0.599723 1.037167,-0.599723 0.592667,0 0.592667,0.656167 0,0.409223 -0.169333,0.818445 -0.05645,0.127 -0.176389,0.381 0,0.01411 0.232833,0.176389 0.239889,0.162278 0.282223,0.218723 0.176389,0.232833 0.176389,0.585611 z m -0.832557,-1.897945 q 0.01411,-0.04233 -0.0635,-0.0635 -0.07761,-0.02117 -0.134055,0 -0.296334,0.112888 -0.416278,0.282222 -0.07056,0.09878 -0.119945,0.345722 l 0.0071,0.36689 q 0.564445,-0.36689 0.726722,-0.931334 z m 0.359834,2.14489 q 0.0071,-0.134056 -0.169333,-0.261056 -0.176389,-0.127 -0.310445,-0.127 -0.246945,0 -0.402167,0.169333 -0.02117,0.03528 -0.134056,0.218723 -0.01411,0.204611 -0.01411,0.366889 0,0.402167 0.07761,0.536223 0.479778,0.03528 0.762001,-0.423334 0.183444,-0.289278 0.1905,-0.479778 z"
         inkscape:connector-curvature="0" />
      <path
         id="path118"
         style="fill:#ffffff;fill-opacity:1;stroke-width:0.264583"
         d="m 32.694759,27.094132 q 0.03528,0.818445 -0.134055,1.439334 -0.246945,0.924278 -0.889001,0.924278 -0.712611,0 -0.987778,-0.754945 -0.162278,-0.437444 -0.1905,-1.284111 -0.07056,-1.813279 0.705556,-2.525891 0.197555,-0.183445 0.289278,-0.183445 0.395111,0 0.754945,0.627945 0.409222,0.705556 0.451555,1.756835 z m -0.599722,0.225778 q -0.0071,-0.225778 -0.0635,-0.522112 -0.07761,-0.430389 -0.176389,-0.430389 -0.01411,0 -0.02822,0.01411 -0.141112,0.275167 -0.373945,0.275167 -0.127,0 -0.268111,-0.09172 -0.127,0.112889 -0.127,0.613833 0,0.30339 0.141111,0.642056 0.176389,0.416278 0.423333,0.416278 0.268112,0 0.395112,-0.366889 0.09172,-0.261055 0.07761,-0.550333 z"
         inkscape:connector-curvature="0" />
      <path
         id="path120"
         style="fill:#ffffff;fill-opacity:1;stroke-width:0.264583"
         d="m 36.803079,27.235243 q 0,0.783167 -0.211666,1.354667 -0.303389,0.804334 -0.952501,0.804334 -0.500945,0 -1.00189,-0.564444 -0.204611,0.486833 -0.550333,0.486833 -0.4445,0 -0.762001,-0.874889 -0.282222,-0.776112 -0.282222,-1.552223 0,-0.289278 0.04233,-0.867834 0.05645,-0.804334 0.141111,-1.143001 h 0.571501 q -0.04233,0.656167 -0.04233,1.199445 0,1.608668 0.30339,1.834446 0.09172,-0.127 0.09172,-0.465667 0,-0.02117 0,-0.105834 -0.0071,-0.105833 -0.0071,-0.176389 0,0 0,-0.331611 0,-0.522111 0.07056,-0.994834 0.134056,-0.289278 0.310445,-0.289278 0.112888,0 0.395111,0.218722 -0.02822,0.409223 -0.02822,0.698501 0,1.50989 0.747889,1.50989 0.204611,0 0.331611,-0.155223 0.134056,-0.155222 0.134056,-0.366889 0,-0.642056 -0.740834,-1.298223 0,-0.783167 0.296334,-1.418167 0.585611,0.381 0.881945,1.093611 0.261055,0.627945 0.261055,1.404057 z"
         inkscape:connector-curvature="0" />
    </g>
    <g
       transform="translate(0,-0.52916667)"
       style="font-size:7.05556px;line-height:1.25;font-family:JazzText;-inkscape-font-specification:JazzText;fill:#ffffff;fill-opacity:1;stroke-width:0.264583"
       id="text1315-3-2"
       aria-label="Thunder">
      <path
         id="path123"
         style="fill:#ffffff;fill-opacity:1;stroke-width:0.264583"
         d="m 19.334836,34.273115 q -0.324556,-0.04233 -1.305279,0.515056 l 0.197556,3.711225 q -0.162278,0.169333 -0.437445,0.176389 -0.07761,0 -0.162278,0.03528 l -0.282222,-3.675946 q -0.917223,0.635 -1.051279,0.635 -0.01411,0 -0.02117,-0.0071 L 16.181,34.005004 q 0.606778,-0.338667 1.213557,-0.677334 0.733778,-0.395111 1.248834,-0.557389 0.218722,-0.07056 0.606778,-0.07761 0.127,1.100667 0.127,1.389945 0,0.1905 -0.04233,0.1905 z"
         inkscape:connector-curvature="0" />
      <path
         id="path125"
         style="fill:#ffffff;fill-opacity:1;stroke-width:0.264583"
         d="m 22.332456,36.954228 -0.225778,0.03528 q 0.169334,0.917222 0.169334,1.432278 0,0.112889 -0.01411,0.169334 -0.09878,0.119944 -0.338667,0.119944 -0.134056,0 -0.183445,-0.04233 -0.127,-0.211667 -0.218722,-0.825501 -0.03528,-0.254 -0.105834,-0.769056 -0.134055,0.05645 -0.183444,0.07056 -0.1905,0.04939 -0.437445,0.0635 0.02117,0.275167 0.02117,0.620889 0,0.352778 -0.02117,0.776112 -0.127,0.0635 -0.310444,0.0635 -0.183445,0 -0.275167,-0.05644 -0.04939,-0.07056 -0.04939,-0.550334 v -0.599723 q 0,-0.08467 -0.02117,-0.176389 -0.04233,0.01411 -0.359833,0.08467 -0.127001,-0.437445 -0.127001,-0.818445 0,-0.204611 0.04233,-0.3175 l 0.296333,-0.04233 q -0.02117,-0.493889 -0.02117,-1.820334 0.119944,-0.148167 0.373944,-0.148167 0.141112,0 0.261056,0.05645 0.04233,0.388055 0.04233,0.790222 v 0.698501 q 0,0.218722 0.02822,0.352778 l 0.606778,-0.119945 v -2.010834 q 0.112889,-0.0635 0.246944,-0.0635 0.261056,0 0.359834,0.127 0.05644,0.303389 0.04233,0.945445 -0.0071,0.642056 0.05645,0.945445 0,0.0071 0.01411,0.0071 0.03528,0 0.155222,-0.09172 0.1905,0.275167 0.176389,1.093612 z"
         inkscape:connector-curvature="0" />
      <path
         id="path127"
         style="fill:#ffffff;fill-opacity:1;stroke-width:0.264583"
         d="m 25.310675,36.777839 q 0,1.996723 -0.87489,1.940279 -0.783167,-0.04939 -1.164167,-0.1905 -0.381001,-0.68439 -0.522112,-1.524001 -0.09878,-0.599723 -0.09878,-1.538112 0,-0.183445 0.02822,-0.627945 0.02117,-0.402167 0.01411,-0.635001 h 0.620889 q 0,0.211667 -0.03528,0.635001 -0.02822,0.416278 -0.02822,0.627945 0,0.896056 0.08467,1.227667 0.183444,0.712612 0.804334,0.74789 0.409222,0.02117 0.529167,-0.204612 0.09172,-0.169333 0.09172,-0.691445 0,-1.093611 -0.705556,-1.241778 l 0.112889,-1.135945 q 0.07055,-0.0071 0.275167,-0.0071 0.275166,0 0.536222,0.606778 0.331612,0.769056 0.331612,2.010835 z"
         inkscape:connector-curvature="0" />
      <path
         id="path129"
         style="fill:#ffffff;fill-opacity:1;stroke-width:0.264583"
         d="m 28.752244,38.012562 q 0,0.381 -0.07056,0.684389 H 28.26541 q -0.1905,-0.275167 -0.832556,-0.987778 -0.719667,-0.797278 -1.107723,-1.12889 0.0071,0.261056 0.05645,0.81139 0.05644,0.543278 0.05644,0.8255 0,0.105834 -0.02117,0.176389 -0.04939,0.112889 -0.23989,0.112889 -0.141111,0 -0.268111,-0.07055 -0.204611,-0.656168 -0.204611,-2.695224 0,-0.564445 0.09172,-1.347612 0.119945,-0.04233 0.225778,-0.04233 0.162278,0 0.296334,0.09172 0.04233,0.07761 0.04939,0.225778 0.0071,0.218723 0.01411,0.246945 0.536222,0.557389 1.312334,1.44639 -0.07761,-0.825501 -0.07761,-1.19239 0,-0.127 0.04233,-0.536222 0.05645,-0.522112 0.127,-0.712612 0.04939,0 0.141111,-0.01411 0.09878,-0.01411 0.148167,-0.01411 0.162278,0 0.246945,0.155222 0,0.162278 -0.02822,0.493889 -0.02117,0.331612 -0.02117,0.49389 0,1.171223 0.3175,2.173112 0.162278,0.515056 0.162278,0.804334 z"
         inkscape:connector-curvature="0" />
      <path
         id="path131"
         style="fill:#ffffff;fill-opacity:1;stroke-width:0.264583"
         d="m 31.957453,36.298061 q 0,0.867834 -0.09172,1.312334 -0.169333,0.853723 -0.684389,1.023056 -0.197556,0.0635 -0.776111,0.0635 -0.818445,0 -1.037168,-0.359833 -0.105833,-0.846668 -0.105833,-1.277057 l 0.225778,0.05645 q -0.02117,-0.451556 -0.162278,-0.952501 -0.0635,0.02822 -0.204611,0.0635 v -1.206501 q 0.345722,-0.522111 0.592667,-0.719667 0.352778,-0.289278 0.860778,-0.289278 0.867834,0 1.178279,0.762001 0.204611,0.500945 0.204611,1.524001 z m -0.493889,-0.04233 q 0,-0.395111 -0.338667,-0.719667 -0.289278,-0.275167 -0.508001,-0.275167 -0.310444,0 -0.522111,0.204612 -0.211667,0.197555 -0.211667,0.508 0,0.458611 0.197556,1.206501 0.289278,0.162278 0.592667,0.162278 0.550334,0 0.6985,-0.275167 0.09172,-0.176389 0.09172,-0.81139 z"
         inkscape:connector-curvature="0" />
      <path
         id="path133"
         style="fill:#ffffff;fill-opacity:1;stroke-width:0.264583"
         d="m 34.590058,37.582173 q 0.03528,0.02822 0.03528,0.176389 0,0.112889 -0.02117,0.296333 -0.02822,0.232834 -0.03528,0.289278 -0.02117,0.254 -0.225778,0.310445 -0.04939,0.01411 -0.3175,0.01411 h -1.411112 q -0.176389,-0.345722 -0.324556,-2.899835 -0.03528,-0.550334 0.712612,-1.164168 0.656167,-0.543278 1.100667,-0.606778 0.134056,-0.02117 0.204612,0.08467 0.07055,0.09878 0.05644,0.310445 0,0.03528 -0.01411,0.197555 -0.02117,0.359834 -0.09172,0.472723 -0.04939,0.08467 -0.239889,0.169333 -0.268112,0.119945 -0.458612,0.254 -0.684389,0.49389 -0.684389,0.663223 0,0.04233 0.07056,0.04939 1.044222,-0.430389 1.086556,-0.430389 0.169333,0 0.211667,0.261056 0.0071,0.05644 0.01411,0.359833 0.0071,0.472723 -0.254,0.627945 -0.458612,0.183444 -0.924279,0.373945 0,0.162277 -0.0071,0.155222 0.649111,-0.02822 0.938389,-0.02822 0.550334,0 0.578556,0.0635 z"
         inkscape:connector-curvature="0" />
      <path
         id="path135"
         style="fill:#ffffff;fill-opacity:1;stroke-width:0.264583"
         d="m 37.482839,38.718118 q -0.726723,-0.09878 -1.270001,-0.09878 -0.3175,0 -0.656167,0.02822 -0.232834,-1.008945 -0.261056,-2.137834 -0.402167,-0.07761 -0.402167,-0.860779 0,-0.550333 0.409222,-1.072445 0.437445,-0.564445 0.973668,-0.564445 0.606778,0 0.818445,0.437445 0.134055,0.275167 0.134055,0.853723 0,0.543278 -0.254,1.058334 -0.204611,0.409222 -0.740834,1.100667 -0.0071,0.127 0.606779,0.176389 0.613833,0.04939 0.620889,0.07761 z m -0.87489,-3.414891 q 0,-0.155223 -0.268111,-0.155223 -0.232834,0 -0.479778,0.225778 -0.204612,0.183445 -0.331612,0.43039 0.162278,0.169333 0.211667,0.839611 0.04939,-0.08467 0.543278,-0.705556 0.324556,-0.409222 0.324556,-0.635 z"
         inkscape:connector-curvature="0" />
    </g>
    <g
       style="font-size:7.05556px;line-height:1.25;font-family:JazzText;-inkscape-font-specification:JazzText;fill:#ffffff;fill-opacity:1;stroke-width:0.264583"
       id="text1315-3-2-0"
       aria-label="Snow ">
      <path
         id="path138"
         style="fill:#ffffff;fill-opacity:1;stroke-width:0.264583"
         d="m 19.856947,46.133254 q -0.04233,1.016 -0.373945,1.418167 -0.373945,0.458612 -1.340557,0.458612 h -1.220611 q -0.0071,-0.04233 0.07055,-0.733779 l 0.07056,-0.719667 q 0.183444,-0.169333 0.705556,-0.268111 0.08467,0 0.1905,0.1905 0.112889,0.1905 0.359833,0.1905 0.606779,0 0.670279,-0.169333 0.04233,-0.282223 -0.691445,-0.451556 -0.522112,-0.119945 -0.924279,-0.119945 -0.1905,0 -0.388055,0.02117 -0.458612,-0.09172 -0.592668,-0.261056 Q 16.181,45.420642 16.181,44.630419 q 0,-0.712611 0.416278,-1.298223 0.381,-0.529167 1.058334,-0.874889 0.465667,-0.239889 0.663222,-0.239889 0.127,0 0.261056,0.232833 0.141111,0.225778 0.141111,0.373945 0,0.112889 -0.09172,0.663223 -0.458611,0 -0.945445,0.246944 -0.578556,0.289278 -0.620889,0.698501 -0.02822,0.119944 0.331611,0.119944 0.09878,0 0.296334,-0.0071 0.197555,-0.0071 0.296333,-0.0071 0.924278,0 1.368779,0.3175 0.543278,0.381001 0.500945,1.277057 z"
         inkscape:connector-curvature="0" />
      <path
         id="path140"
         style="fill:#ffffff;fill-opacity:1;stroke-width:0.264583"
         d="m 23.375907,47.332699 q 0,0.381 -0.07056,0.684389 h -0.416278 q -0.1905,-0.275167 -0.832556,-0.987778 -0.719668,-0.797278 -1.107723,-1.12889 0.0071,0.261056 0.05644,0.81139 0.05645,0.543278 0.05645,0.8255 0,0.105834 -0.02117,0.176389 -0.04939,0.112889 -0.239889,0.112889 -0.141111,0 -0.268111,-0.07055 -0.204612,-0.656168 -0.204612,-2.695224 0,-0.564445 0.09172,-1.347612 0.119944,-0.04233 0.225778,-0.04233 0.162277,0 0.296333,0.09172 0.04233,0.07761 0.04939,0.225777 0.0071,0.218723 0.01411,0.246945 0.536223,0.557389 1.312334,1.44639 -0.07761,-0.825501 -0.07761,-1.19239 0,-0.127 0.04233,-0.536222 0.05644,-0.522112 0.127,-0.712612 0.04939,0 0.141111,-0.01411 0.09878,-0.01411 0.148167,-0.01411 0.162277,0 0.246944,0.155222 0,0.162278 -0.02822,0.493889 -0.02117,0.331612 -0.02117,0.49389 0,1.171223 0.3175,2.173112 0.162278,0.515056 0.162278,0.804334 z"
         inkscape:connector-curvature="0" />
      <path
         id="path142"
         style="fill:#ffffff;fill-opacity:1;stroke-width:0.264583"
         d="m 25.953171,45.688753 q 0.03528,0.818445 -0.134056,1.439335 -0.246944,0.924278 -0.889,0.924278 -0.712612,0 -0.987779,-0.754945 -0.162278,-0.437445 -0.1905,-1.284112 -0.07056,-1.813279 0.705556,-2.52589 0.197556,-0.183445 0.289278,-0.183445 0.395111,0 0.754945,0.627945 0.409223,0.705556 0.451556,1.756834 z m -0.599723,0.225778 q -0.0071,-0.225778 -0.0635,-0.522111 -0.07761,-0.430389 -0.176389,-0.430389 -0.01411,0 -0.02822,0.01411 -0.141111,0.275167 -0.373945,0.275167 -0.127,0 -0.268111,-0.09172 -0.127,0.112889 -0.127,0.613834 0,0.303389 0.141111,0.642056 0.176389,0.416278 0.423334,0.416278 0.268111,0 0.395111,-0.366889 0.09172,-0.261056 0.07761,-0.550334 z"
         inkscape:connector-curvature="0" />
      <path
         id="path144"
         style="fill:#ffffff;fill-opacity:1;stroke-width:0.264583"
         d="m 30.061492,45.829865 q 0,0.783167 -0.211667,1.354667 -0.303389,0.804334 -0.952501,0.804334 -0.500944,0 -1.001889,-0.564445 -0.204611,0.486834 -0.550334,0.486834 -0.4445,0 -0.762,-0.87489 -0.282223,-0.776111 -0.282223,-1.552223 0,-0.289278 0.04233,-0.867834 0.05644,-0.804334 0.141111,-1.143 h 0.5715 q -0.04233,0.656167 -0.04233,1.199445 0,1.608667 0.303389,1.834445 0.09172,-0.127 0.09172,-0.465667 0,-0.02117 0,-0.105833 -0.0071,-0.105833 -0.0071,-0.176389 0,0 0,-0.331611 0,-0.522112 0.07055,-0.994834 0.134056,-0.289278 0.310445,-0.289278 0.112889,0 0.395111,0.218722 -0.02822,0.409223 -0.02822,0.698501 0,1.509889 0.747889,1.509889 0.204612,0 0.331612,-0.155222 0.134055,-0.155222 0.134055,-0.366889 0,-0.642056 -0.740833,-1.298223 0,-0.783167 0.296333,-1.418168 0.585612,0.381001 0.881945,1.093612 0.261056,0.627945 0.261056,1.404057 z"
         inkscape:connector-curvature="0" />
    </g>
    <g
       style="font-size:7.05556px;line-height:1.25;font-family:JazzText;-inkscape-font-specification:JazzText;fill:#ffffff;fill-opacity:1;stroke-width:0.264583"
       id="text1315-3-2-0-4"
       aria-label="Fall ">
      <path
         id="path147"
         style="fill:#ffffff;fill-opacity:1;stroke-width:0.264583"
         d="m 18.49724,55.206659 q 0.01411,0.515056 -0.0635,0.606779 -0.09878,0.0635 -0.74789,0.246944 -0.599722,0.169334 -0.691445,0.275167 0.0071,0.3175 0.0071,0.557389 0,0.81139 -0.105833,0.81139 -0.317501,0 -0.395112,-0.3175 -0.0071,-0.04233 -0.134055,-1.248835 0,-0.01411 -0.08467,-1.199445 -0.08467,-1.248834 -0.09878,-1.538112 -0.01411,-0.402167 0.07056,-0.635 0.183444,-0.225778 0.881945,-0.55739 0.670278,-0.3175 0.881945,-0.3175 0.225778,0 0.282222,0.3175 l 0.02822,0.345723 q 0.01411,0.141111 0.01411,0.254 0,0.239889 -0.05644,0.331611 -0.09878,0.169334 -0.500945,0.359834 -0.578556,0.275167 -0.973667,0.557389 l 0.02822,0.966612 q 0.211667,0.02822 0.733778,-0.197556 0.529167,-0.232833 0.649112,-0.232833 0.254,0 0.275167,0.613833 z"
         inkscape:connector-curvature="0" />
      <path
         id="path149"
         style="fill:#ffffff;fill-opacity:1;stroke-width:0.264583"
         d="m 21.063149,56.984661 0.0635,0.472722 q 0,0.176389 -0.310445,0.176389 -0.282222,0 -0.366889,-0.289278 L 20.336426,56.66716 q -0.705556,0.268112 -0.790223,0.36689 0,0.529167 -0.02117,0.670278 h -0.500944 q -0.105834,-0.543278 -0.105834,-0.889001 0,-0.642056 0.254,-1.883834 0.331612,-1.615724 0.776112,-1.89089 0.310445,0.02117 0.500945,0.684389 0.02822,0.07055 0.268111,1.241778 0.218723,1.051279 0.345723,2.017891 z M 20.033037,55.52416 q 0,-0.211667 -0.08467,-0.635001 l -0.105833,-0.0071 q -0.112889,0.352778 -0.169334,0.811389 0.359834,-0.08467 0.359834,-0.169333 z"
         inkscape:connector-curvature="0" />
      <path
         id="path151"
         style="fill:#ffffff;fill-opacity:1;stroke-width:0.264583"
         d="m 24.226354,57.612605 q -0.663222,0.0635 -1.065389,0.0635 -0.465667,0 -1.199446,-0.0635 -0.0635,-0.1905 -0.1905,-0.578555 -0.09878,-0.317501 -0.218722,-1.31939 -0.08467,-0.698501 -0.08467,-1.876779 0,-0.578556 0.05645,-0.740834 0.345722,0 0.465667,0.119945 0.05644,0.289277 0.08467,1.143 0.03528,1.008945 0.148167,1.926168 0.536223,0.05644 0.797279,0.05644 0.155222,-0.0071 1.044222,-0.07056 0.0071,0.02117 0.162278,1.340556 z"
         inkscape:connector-curvature="0" />
      <path
         id="path153"
         style="fill:#ffffff;fill-opacity:1;stroke-width:0.264583"
         d="m 27.464746,57.612605 q -0.663222,0.0635 -1.065389,0.0635 -0.465667,0 -1.199446,-0.0635 -0.0635,-0.1905 -0.1905,-0.578555 -0.09878,-0.317501 -0.218722,-1.31939 -0.08467,-0.698501 -0.08467,-1.876779 0,-0.578556 0.05645,-0.740834 0.345722,0 0.465667,0.119945 0.05644,0.289277 0.08467,1.143 0.03528,1.008945 0.148167,1.926168 0.536223,0.05644 0.797278,0.05644 0.155223,-0.0071 1.044223,-0.07056 0.0071,0.02117 0.162278,1.340556 z"
         inkscape:connector-curvature="0" />
    </g>
    <g
       style="font-size:7.05556px;line-height:1.25;font-family:JazzText;-inkscape-font-specification:JazzText;fill:#ffffff;fill-opacity:1;stroke-width:0.264583"
       id="text1315-3-2-0-4-0"
       aria-label="Night ">
      <path
         id="path156"
         style="fill:#ffffff;fill-opacity:1;stroke-width:0.264583"
         d="m 19.983946,66.889172 q 0,0.508001 -0.07055,0.783167 h -0.402167 q -0.282222,-0.381 -1.213556,-1.382889 -1.079501,-1.164168 -1.50989,-1.453446 0.0071,0.373945 0.08467,1.135945 0.07761,0.754945 0.07761,1.143001 0,0.169334 -0.02822,0.225778 -0.04233,0.09878 -0.183444,0.09878 -0.155223,0 -0.310445,-0.07761 Q 16.181,66.621061 16.181,63.96817 q 0,-0.839611 0.112889,-1.658056 0.105833,-0.04233 0.211666,-0.04233 0.162278,0 0.303389,0.09878 0.05645,0.09172 0.05645,0.282223 0,0.246944 0.0071,0.303389 l 1.982613,2.109612 q -0.155222,-1.227667 -0.155222,-1.834446 0,-0.183444 0.04939,-0.663222 0.0635,-0.627945 0.148167,-0.853723 0.04939,0 0.141111,-0.02117 0.09878,-0.02117 0.148167,-0.02117 0.148167,0 0.232834,0.148166 0,0.204612 -0.02822,0.613834 -0.02822,0.402167 -0.02822,0.606778 0,1.545168 0.409223,2.822224 0.211666,0.663223 0.211666,1.030112 z"
         inkscape:connector-curvature="0" />
      <path
         id="path158"
         style="fill:#ffffff;fill-opacity:1;stroke-width:0.264583"
         d="m 21.579495,66.726894 q 0.02117,0.183445 0.02117,0.331612 0,0.388055 -0.141111,0.437444 -0.09878,0.09172 -0.218723,0.09172 -0.127,0 -0.261055,-0.119945 -0.02822,-0.522111 -0.148167,-1.488723 -0.134056,-1.023056 -0.162278,-1.495779 -0.01411,-0.218722 -0.01411,-0.508 0,-0.458612 0.04939,-0.754945 0.148167,-0.08467 0.296333,-0.08467 0.155223,0 0.268112,0.09878 -0.02117,0.811389 0.310444,3.492502 z"
         inkscape:connector-curvature="0" />
      <path
         id="path160"
         style="fill:#ffffff;fill-opacity:1;stroke-width:0.264583"
         d="m 24.975866,67.037339 q 0.02117,1.044223 -0.03528,1.538112 -0.197556,0.204611 -0.423334,0.204611 -0.07056,-0.275167 -0.05644,-0.9525 0.01411,-0.712612 -0.03528,-0.952501 -0.09878,0.345723 -0.373945,0.578556 -0.296333,0.246945 -0.642056,0.246945 -0.712611,0 -1.037167,-0.776112 -0.232834,-0.536223 -0.246945,-1.38289 -0.01411,-0.5715 0.232834,-1.368778 0.366889,-1.199446 1.072445,-1.199446 0.479778,0 0.691445,0.345723 0.127,0.204611 0.239889,0.783167 0.04233,0.218722 0.04233,0.508 0,0.472723 -0.09878,0.500945 0.451556,0.155222 0.599723,0.924278 0.05644,0.296334 0.07056,1.00189 z m -0.910168,-1.961446 q -0.141111,-0.07761 -0.275167,-0.486833 -0.112889,-0.359834 -0.338666,-0.359834 -0.317501,0 -0.536223,0.642056 -0.176389,0.522111 -0.169333,0.839612 0.02117,0.733778 0.642055,0.733778 0.127001,0 0.296334,-0.09172 0.169333,-0.09172 0.169333,-0.204612 l -0.726722,-0.0635 -0.01411,-0.790222 q 0.282222,-0.218723 0.9525,-0.218723 z"
         inkscape:connector-curvature="0" />
      <path
         id="path162"
         style="fill:#ffffff;fill-opacity:1;stroke-width:0.264583"
         d="m 27.931704,65.915505 -0.225777,0.03528 q 0.169333,0.917223 0.169333,1.432278 0,0.112889 -0.01411,0.169334 -0.09878,0.119944 -0.338667,0.119944 -0.134056,0 -0.183445,-0.04233 -0.127,-0.211667 -0.218722,-0.825501 -0.03528,-0.254 -0.105833,-0.769056 -0.134056,0.05644 -0.183445,0.07056 -0.1905,0.04939 -0.437445,0.0635 0.02117,0.275167 0.02117,0.620889 0,0.352778 -0.02117,0.776112 -0.127,0.0635 -0.310444,0.0635 -0.183445,0 -0.275167,-0.05644 -0.04939,-0.07056 -0.04939,-0.550334 v -0.599723 q 0,-0.08467 -0.02117,-0.176389 -0.04233,0.01411 -0.359833,0.08467 -0.127,-0.437445 -0.127,-0.818445 0,-0.204611 0.04233,-0.3175 l 0.296334,-0.04233 q -0.02117,-0.493889 -0.02117,-1.820334 0.119944,-0.148167 0.373945,-0.148167 0.141111,0 0.261055,0.05644 0.04233,0.388055 0.04233,0.790222 v 0.698501 q 0,0.218722 0.02822,0.352778 l 0.606778,-0.119945 V 62.95217 q 0.112889,-0.0635 0.246945,-0.0635 0.261055,0 0.359833,0.127 0.05645,0.303389 0.04233,0.945445 -0.0071,0.642056 0.05644,0.945445 0,0.0071 0.01411,0.0071 0.03528,0 0.155222,-0.09172 0.190501,0.275167 0.176389,1.093612 z"
         inkscape:connector-curvature="0" />
      <path
         id="path164"
         style="fill:#ffffff;fill-opacity:1;stroke-width:0.264583"
         d="m 30.677089,62.839281 q 0.04939,0.486833 0.04939,0.860778 0,0.515056 -0.07056,0.515056 -0.218722,-0.02822 -0.917223,0.352778 l 0.09878,2.843391 q -0.141111,0.141111 -0.289278,0.169333 -0.232833,0.04233 -0.3175,0.07761 L 29.075477,64.84306 q -0.726723,0.381 -0.818445,0.381 -0.01411,0 -0.02117,-0.0071 l -0.04233,-1.3335 q 0.896056,-0.500945 0.9525,-0.529167 0.585612,-0.310445 0.973668,-0.444501 0.162278,-0.05644 0.557389,-0.07055 z"
         inkscape:connector-curvature="0" />
    </g>
  </g>
  <g
     inkscape:groupmode="layer"
     id="layer3"
     inkscape:label="components"
     style="display:inline" />
</svg>
